/* XPM */
static char * Airplay_Dark_xpm[] = {
"128 128 2 1",
" 	c None",
".	c #DFDFDF",
"                                                                                                                                ",
"                                                                                                                                ",
"                                                                                                                                ",
"                                                                                                                                ",
"                                                                                                                                ",
"                                                                                                                                ",
"                                                                                                                                ",
"                                                                                                                                ",
"                                                                                                                                ",
"                                                                                                                                ",
"                                                                                                                                ",
"                                                                                                                                ",
"                                                                                                                                ",
"                                                                                                                                ",
"                                                                                                                                ",
"                                                                                                                                ",
"................................................................................................................................",
"................................................................................................................................",
"................................................................................................................................",
"................................................................................................................................",
"................................................................................................................................",
"................................................................................................................................",
"................................................................................................................................",
"................................................................................................................................",
"................................................................................................................................",
"................................................................................................................................",
"................................................................................................................................",
"................................................................................................................................",
"................................................................................................................................",
"................................................................................................................................",
"................................................................................................................................",
"................................................................................................................................",
"................                                                                                                ................",
"................                                                                                                ................",
"................                                                                                                ................",
"................                                                                                                ................",
"................                                                                                                ................",
"................                                                                                                ................",
"................                                                                                                ................",
"................                                                                                                ................",
"................                                                                                                ................",
"................                                                                                                ................",
"................                                                                                                ................",
"................                                                                                                ................",
"................                                                                                                ................",
"................                                                                                                ................",
"................                                                                                                ................",
"................                                                                                                ................",
"................                                                                                                ................",
"................                                                                                                ................",
"................                                                                                                ................",
"................                                                                                                ................",
"................                                                                                                ................",
"................                                                                                                ................",
"................                                                                                                ................",
"................                                                                                                ................",
"................                                                                                                ................",
"................                                                                                                ................",
"................                                                                                                ................",
"................                                                                                                ................",
"................                                                                                                ................",
"................                                                                                                ................",
"................                                                                                                ................",
"................                                                                                                ................",
"................                                                                                                ................",
"................                                               ..                                               ................",
"................                                              ....                                              ................",
"................                                              ....                                              ................",
"................                                             ......                                             ................",
"................                                            ........                                            ................",
"................                                            ........                                            ................",
"................                                           ..........                                           ................",
"................                                          ............                                          ................",
"................                                          ............                                          ................",
"................                                         ..............                                         ................",
"................                                        ................                                        ................",
"................                                        ................                                        ................",
"................                                       ..................                                       ................",
"................                                      ....................                                      ................",
"................                                      ....................                                      ................",
"........................................             ......................             ........................................",
".......................................             ........................             .......................................",
"......................................              ........................              ......................................",
".....................................              ..........................              .....................................",
".....................................             ............................             .....................................",
"....................................              ............................              ....................................",
"...................................              ..............................              ...................................",
"..................................              ................................              ..................................",
"..................................              ................................              ..................................",
".................................              ..................................              .................................",
"................................              ....................................              ................................",
"...............................               ....................................               ...............................",
"...............................              ......................................              ...............................",
"..............................              ........................................              ..............................",
".............................               ........................................               .............................",
"............................               ..........................................               ............................",
"                                          ............................................                                          ",
"                                          ............................................                                          ",
"                                         ..............................................                                         ",
"                                        ................................................                                        ",
"                                        ................................................                                        ",
"                                       ..................................................                                       ",
"                                      ....................................................                                      ",
"                                      ....................................................                                      ",
"                                     ......................................................                                     ",
"                                    ........................................................                                    ",
"                                    ........................................................                                    ",
"                                   ..........................................................                                   ",
"                                  ............................................................                                  ",
"                                  ............................................................                                  ",
"                                 ..............................................................                                 ",
"                                ................................................................                                ",
"                                                                                                                                ",
"                                                                                                                                ",
"                                                                                                                                ",
"                                                                                                                                ",
"                                                                                                                                ",
"                                                                                                                                ",
"                                                                                                                                ",
"                                                                                                                                ",
"                                                                                                                                ",
"                                                                                                                                ",
"                                                                                                                                ",
"                                                                                                                                ",
"                                                                                                                                ",
"                                                                                                                                ",
"                                                                                                                                ",
"                                                                                                                                "};
